# xmcd
#
# Track frame offsets: 
#        150
#        20025
#        36524
#        52931
#        74052
#        90181
#        108346
#        128110
#        146104
#        167075
#        188231
#        208423
#
# Disc length: 3063 seconds
#
# Revision: 0
# Processed by: cddbd v1.5.2PL0 Copyright (c) Steve Scherf et al.
# Submitted via: ExactAudioCopy v1.2
#
DISCID=b40bf50c
DTITLE=Mighty Mike Schermer - Bad Tattoo
DYEAR=2019
DGENRE=Blues
TTITLE0=She Won't Be Coming Back
TTITLE1=Lover's Hall of Fame
TTITLE2=How Much Longer
TTITLE3=I Can't Let It Go
TTITLE4=Bad Tattoo
TTITLE5=Ain't That the Way Love Goes
TTITLE6=One Thing Every Day
TTITLE7=Hey Francine!
TTITLE8=Baby down the Well
TTITLE9=Suffocating Love
TTITLE10=Stop Looking for Love
TTITLE11=Up All Night
EXTD=
EXTT0=
EXTT1=
EXTT2=
EXTT3=
EXTT4=
EXTT5=
EXTT6=
EXTT7=
EXTT8=
EXTT9=
EXTT10=
EXTT11=
PLAYORDER=
